<svg width="290" height="45" viewBox="0 0 290 45" fill="none" xmlns="http://www.w3.org/2000/svg">
<path d="M6.21 27.322C4.03267 27.322 2.53 26.816 1.702 25.804C1.13467 25.0987 0.851 24.1327 0.851 22.906C0.851 22.3387 0.912333 21.7177 1.035 21.043L1.84 16.443C2.56067 12.3337 5.07533 10.279 9.384 10.279C11.1627 10.279 12.512 10.6623 13.432 11.429C14.352 12.1803 14.812 13.2153 14.812 14.534C14.812 15.0707 14.7353 15.615 14.582 16.167C14.444 16.719 14.306 17.133 14.168 17.409L13.938 17.823H9.867C10.2657 17.271 10.465 16.6347 10.465 15.914C10.465 14.534 9.89 13.844 8.74 13.844C7.19133 13.844 6.26367 14.741 5.957 16.535L5.175 20.951C5.09833 21.365 5.06 21.7713 5.06 22.17C5.06 23.228 5.681 23.757 6.923 23.757C8.18033 23.757 8.98533 23.1283 9.338 21.871H7.452L7.912 19.318H14.007L13.639 21.296L13.524 21.963C12.88 25.5357 10.442 27.322 6.21 27.322ZM22.3195 15.615C23.9755 15.615 25.2252 15.9753 26.0685 16.696C26.7279 17.2633 27.0575 18.053 27.0575 19.065C27.0575 19.4023 27.0192 19.7703 26.9425 20.169L26.4595 22.86C26.1682 24.4853 25.4859 25.6353 24.4125 26.31C23.3545 26.9847 21.9362 27.322 20.1575 27.322C18.3789 27.322 17.0755 26.9847 16.2475 26.31C15.6342 25.804 15.3275 25.045 15.3275 24.033C15.3275 23.6803 15.3659 23.2893 15.4425 22.86L15.9255 20.169C16.4622 17.133 18.5935 15.615 22.3195 15.615ZM22.9405 20.629C22.9712 20.4757 22.9865 20.284 22.9865 20.054C22.9865 19.8087 22.8869 19.5403 22.6875 19.249C22.4882 18.9577 22.1355 18.812 21.6295 18.812C21.1389 18.812 20.7249 18.9807 20.3875 19.318C20.0502 19.64 19.8355 20.077 19.7435 20.629L19.4445 22.354C19.4139 22.5073 19.3985 22.7067 19.3985 22.952C19.3985 23.182 19.4982 23.435 19.6975 23.711C19.8969 23.987 20.2419 24.125 20.7325 24.125C21.2385 24.125 21.6602 23.9563 21.9975 23.619C22.3349 23.2663 22.5495 22.8447 22.6415 22.354L22.9405 20.629ZM41.6553 21.963H38.9183L38.0213 27H33.8813L36.8023 10.44H43.8173C45.55 10.44 46.7843 10.8387 47.5203 11.636C48.057 12.2493 48.3253 13.0313 48.3253 13.982C48.3253 14.304 48.2947 14.6413 48.2333 14.994L47.7733 17.593C47.5433 18.8657 46.8687 19.916 45.7493 20.744C44.63 21.5567 43.2653 21.963 41.6553 21.963ZM42.3683 14.028H40.2983L39.5393 18.375H41.5863C42.8437 18.375 43.572 17.8153 43.7713 16.696L43.9323 15.753C43.963 15.615 43.9783 15.431 43.9783 15.201C43.9783 14.971 43.8633 14.718 43.6333 14.442C43.4033 14.166 42.9817 14.028 42.3683 14.028ZM59.292 23.458C59.292 23.8567 59.4914 24.056 59.89 24.056C60.304 24.056 60.649 23.9793 60.925 23.826L60.81 26.425C60.074 27.023 59.246 27.322 58.326 27.322C56.6394 27.322 55.704 26.7087 55.52 25.482C54.7534 26.7087 53.6264 27.322 52.139 27.322C49.6244 27.322 48.367 26.241 48.367 24.079C48.367 23.711 48.4054 23.3047 48.482 22.86L48.965 20.169C49.2104 18.789 49.77 17.6927 50.644 16.88C51.5334 16.052 52.6834 15.638 54.094 15.638C55.52 15.638 56.486 15.9677 56.992 16.627L57.107 15.937H60.603L59.315 23.182C59.2997 23.274 59.292 23.366 59.292 23.458ZM52.484 22.354C52.4534 22.492 52.438 22.6837 52.438 22.929C52.438 23.1743 52.553 23.4197 52.783 23.665C53.013 23.895 53.3964 24.01 53.933 24.01C54.485 24.01 54.9604 23.7953 55.359 23.366L56.049 19.502C55.8804 19.1187 55.4817 18.927 54.853 18.927C53.6724 18.927 52.9824 19.4943 52.783 20.629L52.484 22.354ZM66.987 27.322C63.7976 27.322 62.203 26.218 62.203 24.01C62.203 23.7033 62.2336 23.3737 62.295 23.021L62.778 20.169C63.0233 18.697 63.6903 17.57 64.779 16.788C65.883 16.006 67.2783 15.6073 68.965 15.592C72.231 15.592 73.864 16.7267 73.864 18.996C73.864 19.4867 73.8026 19.9313 73.68 20.33C73.5726 20.7133 73.4576 20.974 73.335 21.112L73.151 21.342H69.241C69.6243 21.0047 69.816 20.606 69.816 20.146C69.816 19.318 69.402 18.904 68.574 18.904C68.0833 18.904 67.6616 19.0497 67.309 19.341C66.9563 19.6323 66.7263 20.077 66.619 20.675L66.32 22.354C66.2893 22.5073 66.274 22.653 66.274 22.791C66.274 23.6037 66.78 24.01 67.792 24.01C68.1293 24.01 68.4283 23.9027 68.689 23.688C68.965 23.4733 69.126 23.2357 69.172 22.975L72.99 23.021C72.484 25.8883 70.483 27.322 66.987 27.322ZM86.0035 24.056C86.3561 24.056 86.6705 23.9793 86.9465 23.826L86.8315 26.425C86.1108 27.023 85.2291 27.322 84.1865 27.322C83.1438 27.322 82.3695 27.046 81.8635 26.494C81.3728 25.942 80.9895 25.0143 80.7135 23.711L80.6445 23.389C80.3225 23.435 79.8395 23.4733 79.1955 23.504L78.5745 27H74.6645L77.7465 9.543H81.6565L80.3225 17.11C81.2271 16.1133 82.4538 15.615 84.0025 15.615C85.0451 15.615 85.8118 15.8757 86.3025 16.397C86.8085 16.903 87.0615 17.5853 87.0615 18.444C87.0615 20.1 86.1951 21.3957 84.4625 22.331L84.7155 23.182C84.8841 23.7647 85.3135 24.056 86.0035 24.056ZM82.0245 18.743C81.1965 18.743 80.4605 19.134 79.8165 19.916L79.5635 21.434C81.8328 21.342 82.9675 20.7363 82.9675 19.617C82.9675 19.3563 82.8831 19.1493 82.7145 18.996C82.5611 18.8273 82.3311 18.743 82.0245 18.743ZM99.4522 23.458C99.4522 23.8567 99.6515 24.056 100.05 24.056C100.464 24.056 100.809 23.9793 101.085 23.826L100.97 26.425C100.234 27.023 99.4062 27.322 98.4862 27.322C96.7995 27.322 95.8642 26.7087 95.6802 25.482C94.9135 26.7087 93.7865 27.322 92.2992 27.322C89.7845 27.322 88.5272 26.241 88.5272 24.079C88.5272 23.711 88.5655 23.3047 88.6422 22.86L89.1252 20.169C89.3705 18.789 89.9302 17.6927 90.8042 16.88C91.6935 16.052 92.8435 15.638 94.2542 15.638C95.6802 15.638 96.6462 15.9677 97.1522 16.627L97.2672 15.937H100.763L99.4752 23.182C99.4598 23.274 99.4522 23.366 99.4522 23.458ZM92.6442 22.354C92.6135 22.492 92.5982 22.6837 92.5982 22.929C92.5982 23.1743 92.7132 23.4197 92.9432 23.665C93.1732 23.895 93.5565 24.01 94.0932 24.01C94.6452 24.01 95.1205 23.7953 95.5192 23.366L96.2092 19.502C96.0405 19.1187 95.6418 18.927 95.0132 18.927C93.8325 18.927 93.1425 19.4943 92.9432 20.629L92.6442 22.354ZM112.621 27.368C112.284 29.3153 111.509 30.8563 110.298 31.991C109.102 33.1257 107.73 33.693 106.181 33.693C104.632 33.693 103.513 33.4093 102.823 32.842C102.148 32.2747 101.811 31.531 101.811 30.611C101.811 29.2617 102.67 28.0887 104.387 27.092C103.084 26.678 102.432 25.689 102.432 24.125C102.432 23.7417 102.47 23.32 102.547 22.86L103.007 20.169C103.252 18.789 103.82 17.6927 104.709 16.88C105.598 16.052 106.748 15.638 108.159 15.638C109.585 15.638 110.559 15.983 111.08 16.673L111.218 15.937H114.645L112.621 27.368ZM106.549 22.354C106.518 22.492 106.503 22.6837 106.503 22.929C106.503 23.1743 106.618 23.4197 106.848 23.665C107.078 23.895 107.461 24.01 107.998 24.01C108.55 24.01 109.025 23.7953 109.424 23.366L110.114 19.502C109.899 19.1187 109.493 18.927 108.895 18.927C108.297 18.927 107.829 19.0803 107.492 19.387C107.155 19.6937 106.94 20.1077 106.848 20.629L106.549 22.354ZM106.71 30.404C107.707 30.404 108.358 29.4993 108.665 27.69L108.895 26.356C106.764 27.3527 105.698 28.357 105.698 29.369C105.698 29.6757 105.782 29.921 105.951 30.105C106.135 30.3043 106.388 30.404 106.71 30.404ZM119.95 27.322C116.761 27.322 115.166 26.218 115.166 24.01C115.166 23.7033 115.197 23.3737 115.258 23.021L115.741 20.169C116.002 18.697 116.676 17.57 117.765 16.788C118.869 15.9907 120.326 15.592 122.135 15.592C125.217 15.592 126.758 16.7573 126.758 19.088C126.758 19.4253 126.727 19.7933 126.666 20.192L126.39 21.825H119.375L119.283 22.354C119.252 22.538 119.237 22.7067 119.237 22.86C119.237 23.7033 119.735 24.125 120.732 24.125C121.1 24.125 121.414 24.01 121.675 23.78C121.936 23.55 122.089 23.2817 122.135 22.975L125.953 23.021C125.447 25.8883 123.446 27.322 119.95 27.322ZM122.71 20.422C122.771 20.1613 122.802 19.9237 122.802 19.709C122.802 19.479 122.702 19.249 122.503 19.019C122.304 18.789 121.982 18.674 121.537 18.674C121.108 18.674 120.709 18.8197 120.341 19.111C119.988 19.4023 119.743 19.8393 119.605 20.422H122.71ZM140.696 10.44L143.157 18.375L148.447 10.44H152.794L149.873 27H145.71L147.366 17.662L143.824 23.228H140.811L139.247 17.662L137.591 27H133.451L136.372 10.44H140.696ZM164.005 23.458C164.005 23.8567 164.204 24.056 164.603 24.056C165.017 24.056 165.362 23.9793 165.638 23.826L165.523 26.425C164.787 27.023 163.959 27.322 163.039 27.322C161.352 27.322 160.417 26.7087 160.233 25.482C159.466 26.7087 158.339 27.322 156.852 27.322C154.337 27.322 153.08 26.241 153.08 24.079C153.08 23.711 153.118 23.3047 153.195 22.86L153.678 20.169C153.923 18.789 154.483 17.6927 155.357 16.88C156.246 16.052 157.396 15.638 158.807 15.638C160.233 15.638 161.199 15.9677 161.705 16.627L161.82 15.937H165.316L164.028 23.182C164.013 23.274 164.005 23.366 164.005 23.458ZM157.197 22.354C157.166 22.492 157.151 22.6837 157.151 22.929C157.151 23.1743 157.266 23.4197 157.496 23.665C157.726 23.895 158.109 24.01 158.646 24.01C159.198 24.01 159.673 23.7953 160.072 23.366L160.762 19.502C160.593 19.1187 160.195 18.927 159.566 18.927C158.385 18.927 157.695 19.4943 157.496 20.629L157.197 22.354ZM174.46 19.939C174.46 19.2797 174.138 18.95 173.494 18.95C172.865 18.95 172.344 19.1877 171.93 19.663L170.642 27H166.732L168.687 15.937H172.321L172.068 17.294C172.973 16.1747 174.115 15.615 175.495 15.615C176.875 15.615 177.772 15.9523 178.186 16.627C178.447 17.0563 178.577 17.547 178.577 18.099C178.577 18.651 178.539 19.1647 178.462 19.64L177.841 23.182C177.826 23.274 177.818 23.3583 177.818 23.435C177.818 23.849 178.048 24.056 178.508 24.056C178.861 24.056 179.175 23.9793 179.451 23.826L179.336 26.425C178.615 27.023 177.795 27.322 176.875 27.322C174.79 27.322 173.747 26.448 173.747 24.7C173.747 24.3933 173.778 24.0637 173.839 23.711L174.391 20.652C174.437 20.376 174.46 20.1383 174.46 19.939ZM191.587 23.458C191.587 23.8567 191.786 24.056 192.185 24.056C192.599 24.056 192.944 23.9793 193.22 23.826L193.105 26.425C192.369 27.023 191.541 27.322 190.621 27.322C188.934 27.322 187.999 26.7087 187.815 25.482C187.048 26.7087 185.921 27.322 184.434 27.322C181.919 27.322 180.662 26.241 180.662 24.079C180.662 23.711 180.7 23.3047 180.777 22.86L181.26 20.169C181.505 18.789 182.065 17.6927 182.939 16.88C183.828 16.052 184.978 15.638 186.389 15.638C187.815 15.638 188.781 15.9677 189.287 16.627L189.402 15.937H192.898L191.61 23.182C191.595 23.274 191.587 23.366 191.587 23.458ZM184.779 22.354C184.748 22.492 184.733 22.6837 184.733 22.929C184.733 23.1743 184.848 23.4197 185.078 23.665C185.308 23.895 185.691 24.01 186.228 24.01C186.78 24.01 187.255 23.7953 187.654 23.366L188.344 19.502C188.175 19.1187 187.777 18.927 187.148 18.927C185.967 18.927 185.277 19.4943 185.078 20.629L184.779 22.354ZM204.756 27.368C204.419 29.3153 203.644 30.8563 202.433 31.991C201.237 33.1257 199.865 33.693 198.316 33.693C196.767 33.693 195.648 33.4093 194.958 32.842C194.283 32.2747 193.946 31.531 193.946 30.611C193.946 29.2617 194.805 28.0887 196.522 27.092C195.219 26.678 194.567 25.689 194.567 24.125C194.567 23.7417 194.605 23.32 194.682 22.86L195.142 20.169C195.387 18.789 195.955 17.6927 196.844 16.88C197.733 16.052 198.883 15.638 200.294 15.638C201.72 15.638 202.694 15.983 203.215 16.673L203.353 15.937H206.78L204.756 27.368ZM198.684 22.354C198.653 22.492 198.638 22.6837 198.638 22.929C198.638 23.1743 198.753 23.4197 198.983 23.665C199.213 23.895 199.596 24.01 200.133 24.01C200.685 24.01 201.16 23.7953 201.559 23.366L202.249 19.502C202.034 19.1187 201.628 18.927 201.03 18.927C200.432 18.927 199.964 19.0803 199.627 19.387C199.29 19.6937 199.075 20.1077 198.983 20.629L198.684 22.354ZM198.845 30.404C199.842 30.404 200.493 29.4993 200.8 27.69L201.03 26.356C198.899 27.3527 197.833 28.357 197.833 29.369C197.833 29.6757 197.917 29.921 198.086 30.105C198.27 30.3043 198.523 30.404 198.845 30.404ZM212.085 27.322C208.895 27.322 207.301 26.218 207.301 24.01C207.301 23.7033 207.331 23.3737 207.393 23.021L207.876 20.169C208.136 18.697 208.811 17.57 209.9 16.788C211.004 15.9907 212.46 15.592 214.27 15.592C217.352 15.592 218.893 16.7573 218.893 19.088C218.893 19.4253 218.862 19.7933 218.801 20.192L218.525 21.825H211.51L211.418 22.354C211.387 22.538 211.372 22.7067 211.372 22.86C211.372 23.7033 211.87 24.125 212.867 24.125C213.235 24.125 213.549 24.01 213.81 23.78C214.07 23.55 214.224 23.2817 214.27 22.975L218.088 23.021C217.582 25.8883 215.581 27.322 212.085 27.322ZM214.845 20.422C214.906 20.1613 214.937 19.9237 214.937 19.709C214.937 19.479 214.837 19.249 214.638 19.019C214.438 18.789 214.116 18.674 213.672 18.674C213.242 18.674 212.844 18.8197 212.476 19.111C212.123 19.4023 211.878 19.8393 211.74 20.422H214.845ZM231.284 18.283C231.284 18.8043 231.192 19.3103 231.008 19.801C230.839 20.2917 230.671 20.652 230.502 20.882L230.249 21.204H226.776C227.159 20.8513 227.351 20.4143 227.351 19.893C227.351 19.617 227.259 19.3947 227.075 19.226C226.906 19.042 226.669 18.95 226.362 18.95C225.841 18.95 225.388 19.2107 225.005 19.732L223.717 27H219.807L221.762 15.937H225.396L225.12 17.478C225.994 16.236 227.052 15.615 228.294 15.615C229.291 15.615 230.034 15.8527 230.525 16.328C231.031 16.8033 231.284 17.455 231.284 18.283Z" fill="#35A4FF"/>
<g filter="url(#filter0_d_2_55)">
<path d="M275.323 3.47084L286.737 7.17475L283.959 15.7353L272.545 12.0314L275.323 3.47084Z" fill="#D9D9D9"/>
<path d="M288.613 7.47058C288.806 8.8656 286.989 8.41875 286.906 8.98662C286.758 10.0113 286.176 11.415 285.587 12.791C284.588 15.1232 284.517 21.4613 280.021 22.5584C279.173 22.7693 277.419 22.4682 275.754 21.9697L275.738 21.9648C274.098 21.3905 272.273 20.5303 271.711 19.8617C268.723 16.3361 272.388 11.1644 272.955 8.6919C273.279 7.22974 273.633 5.75221 274.122 4.83828C274.388 4.32947 272.653 3.63241 273.63 2.60871C274.468 1.73234 275.406 3.05084 275.823 2.82568C277.941 1.69458 280.01 1.87977 281.539 2.33395C281.69 2.38316 282.373 2.6046 282.373 2.6046C283.857 3.17005 285.65 4.20445 286.711 6.3589C286.916 6.78582 288.442 6.26696 288.613 7.47058ZM278.357 11.1067C278.279 11.1149 277.924 11.821 278.26 11.9721C278.488 12.0712 279.108 12.3561 279.291 12.3068C279.649 12.2132 279.766 11.7484 279.636 11.5805C279.415 11.3075 278.445 11.0934 278.357 11.1067ZM278.237 4.91642C277.485 4.572 275.937 4.87424 275.238 6.35703C274.504 7.89557 275.883 10.1029 278.22 9.10119C279.476 8.5618 280.673 6.03392 278.237 4.91642ZM283.514 6.6289C280.886 6.10281 280.371 8.85214 281.071 10.0263C282.374 12.2091 284.786 11.232 285.095 9.55563C285.408 7.94735 284.332 6.7938 283.514 6.6289Z" fill="#8CC5E7"/>
<path d="M279.586 9.77094C280.086 9.85771 281.054 10.7752 280.769 11.395C280.434 12.1162 277.544 11.2871 277.683 10.3432C277.769 9.76777 278.314 9.55924 279.586 9.77094ZM284.078 17.9078C283.845 17.824 283.795 17.4639 283.856 17.2743C283.967 16.9331 284.143 16.546 284.449 16.4528C285.081 16.2638 284.909 18.186 284.078 17.9078ZM271.165 13.7176C270.329 13.4546 271.319 11.798 271.719 12.3217C271.913 12.5773 271.828 12.9939 271.717 13.3351C271.655 13.5247 271.403 13.7863 271.165 13.7176ZM280.709 22.8907C280.79 23.1598 280.748 23.3139 280.468 23.3489C279.406 23.4733 278.764 22.6364 279.126 22.5781C279.894 22.4585 280.473 22.0682 280.709 22.8907ZM270.942 19.8048C271.616 19.2776 271.855 19.9337 272.407 20.4813C272.666 20.7414 271.655 21.0419 270.868 20.3171C270.662 20.1247 270.719 19.9755 270.942 19.8048Z" fill="#B8937F"/>
<path d="M287.136 7.19244C287.226 7.04552 287.644 7.09764 287.776 7.44195C287.935 7.8541 287.138 8.08985 287.167 7.89804C287.251 7.38059 287.039 7.33691 287.136 7.19244ZM274.982 3.24833C274.976 3.42232 274.778 3.33314 274.542 3.80138C274.453 3.97351 273.946 3.31456 274.317 3.07464C274.618 2.87057 274.988 3.07434 274.982 3.24833ZM282.67 9.82452C282.192 9.66961 281.931 9.15703 282.086 8.67966C282.241 8.20228 282.753 7.94086 283.231 8.09578C283.708 8.25069 283.97 8.76326 283.815 9.24064C283.66 9.71802 283.147 9.97943 282.67 9.82452ZM282.755 8.78777C282.906 8.83668 283.067 8.75413 283.116 8.60338C283.165 8.45263 283.083 8.29077 282.932 8.24185C282.781 8.19293 282.619 8.27548 282.57 8.42623C282.522 8.57698 282.604 8.73885 282.755 8.78777ZM278.687 9.88146C278.891 9.5622 279.247 9.55181 279.507 9.62788C280.172 9.82678 280.306 10.2643 280.238 10.5523C280.128 11.0447 278.241 10.5581 278.687 9.88146ZM277.051 8.00132C276.574 7.84641 276.313 7.33384 276.468 6.85646C276.622 6.37908 277.135 6.11767 277.612 6.27258C278.09 6.42749 278.351 6.94006 278.196 7.41744C278.041 7.89482 277.529 8.15623 277.051 8.00132ZM277.591 7.11219C277.742 7.16111 277.904 7.07856 277.953 6.92781C278.002 6.77706 277.919 6.61519 277.769 6.56628C277.618 6.51736 277.456 6.59991 277.407 6.75066C277.358 6.90141 277.441 7.06327 277.591 7.11219Z" fill="black"/>
</g>
<g filter="url(#filter1_d_2_55)">
<path d="M272.749 18.8284L264.5 40.9597L249 32.2202V14.7395L272.749 18.8284Z" fill="#E0B76E"/>
<path d="M264.5 6L249 14.7395L264.5 23.4799V40.9597L280 32.2202V14.7395L264.5 6Z" fill="#F4CE8F"/>
<path d="M264.5 23.4799V40.9597L280 32.2202V14.7395L264.5 23.4799Z" fill="#F2CA7F"/>
<path d="M258.93 37.8201V20.3394L265.332 16.7292H260.089L260.116 14.2629L254.135 17.635V35.0552" fill="#41759D"/>
<path d="M258.93 37.8201V20.3394L254.135 17.635V35.0552" fill="#3C6F91"/>
<path d="M269.669 8.87913L263.267 12.4893H268.51L268.484 14.9557L274.465 11.5835" fill="#41759D"/>
<path d="M272.617 25.9509L270.299 24.3404L267.908 28.5987L269.668 27.6087V34.8228L270.893 34.1318V26.9199L272.617 25.9509Z" fill="#898686"/>
<path d="M272.306 30.6992L274.623 32.3097L277.015 28.0514L275.254 29.0413V21.8273L274.029 22.5183V29.7303L272.306 30.6992Z" fill="#898686"/>
</g>
<defs>
<filter id="filter0_d_2_55" x="270.252" y="1.97966" width="18.6755" height="22.6818" filterUnits="userSpaceOnUse" color-interpolation-filters="sRGB">
<feFlood flood-opacity="0" result="BackgroundImageFix"/>
<feColorMatrix in="SourceAlpha" type="matrix" values="0 0 0 0 0 0 0 0 0 0 0 0 0 0 0 0 0 0 127 0" result="hardAlpha"/>
<feOffset dy="1"/>
<feGaussianBlur stdDeviation="0.15"/>
<feComposite in2="hardAlpha" operator="out"/>
<feColorMatrix type="matrix" values="0 0 0 0 0 0 0 0 0 0 0 0 0 0 0 0 0 0 0.25 0"/>
<feBlend mode="normal" in2="BackgroundImageFix" result="effect1_dropShadow_2_55"/>
<feBlend mode="normal" in="SourceGraphic" in2="effect1_dropShadow_2_55" result="shape"/>
</filter>
<filter id="filter1_d_2_55" x="245.8" y="0.8" width="39.4" height="43.3597" filterUnits="userSpaceOnUse" color-interpolation-filters="sRGB">
<feFlood flood-opacity="0" result="BackgroundImageFix"/>
<feColorMatrix in="SourceAlpha" type="matrix" values="0 0 0 0 0 0 0 0 0 0 0 0 0 0 0 0 0 0 127 0" result="hardAlpha"/>
<feOffset dx="1" dy="-1"/>
<feGaussianBlur stdDeviation="2.1"/>
<feComposite in2="hardAlpha" operator="out"/>
<feColorMatrix type="matrix" values="0 0 0 0 0 0 0 0 0 0 0 0 0 0 0 0 0 0 0.25 0"/>
<feBlend mode="normal" in2="BackgroundImageFix" result="effect1_dropShadow_2_55"/>
<feBlend mode="normal" in="SourceGraphic" in2="effect1_dropShadow_2_55" result="shape"/>
</filter>
</defs>
</svg>
